<?xml version="1.0" encoding="utf-8"?>
<svg
	version="1.1"
	xmlns="http://www.w3.org/2000/svg"
	xmlns:xlink="http://www.w3.org/1999/xlink"
	x="0%" y="0%"
	width="100%" height="100%"
	viewBox="0 0 24.0 24.0"
	enable-background="new 0 0 24.0 24.0"
	xml:space="preserve">
	<path
		fill="#FFFFFF"
		stroke="#000000"
		fill-opacity="1.000"
		stroke-opacity="0.000"
		fill-rule="nonzero"
		stroke-width="0.2235969"
		stroke-linejoin="miter"
		stroke-linecap="square"
		d="M4.56,16.57L16.58,4.56A0.51 0.51 0 0 1 17.29,4.56L19.44,6.71A0.51 0.51 0 0 1 19.44,7.43L7.42,19.44A0.51 0.51 0 0 1 6.71,19.44L4.56,17.29A0.51 0.51 0 0 1 4.56,16.57z"/>
	<path
		fill="#FFFFFF"
		stroke="#000000"
		fill-opacity="1.000"
		stroke-opacity="0.000"
		fill-rule="nonzero"
		stroke-width="0.2235969"
		stroke-linejoin="miter"
		stroke-linecap="square"
		d="M6.20,5.47L20.12,15.21A0.51 0.51 0 0 1 20.25,15.92L18.51,18.41A0.51 0.51 0 0 1 17.80,18.53L3.88,8.79A0.51 0.51 0 0 1 3.75,8.08L5.49,5.59A0.51 0.51 0 0 1 6.20,5.47z"/>
</svg>