<?xml version="1.0" encoding="utf-8"?>
<svg
	version="1.1"
	xmlns="http://www.w3.org/2000/svg"
	xmlns:xlink="http://www.w3.org/1999/xlink"
	x="0%" y="0%"
	width="100%" height="100%"
	viewBox="0 0 24.0 24.0"
	enable-background="new 0 0 24.0 24.0"
	xml:space="preserve">
	<path
		fill="#FFFFFF"
		stroke="#000000"
		fill-opacity="1.000"
		stroke-opacity="0.000"
		fill-rule="nonzero"
		stroke-width="0.24"
		stroke-linejoin="miter"
		stroke-linecap="square"
		d="M12.00,9.53C13.37,9.53,14.48,10.64,14.48,12.00C14.48,13.36,13.37,14.47,12.00,14.47C10.63,14.47,9.52,13.36,9.52,12.00C9.52,10.64,10.63,9.53,12.00,9.53z"/>
	<path
		fill="#FFFFFF"
		stroke="#000000"
		fill-opacity="1.000"
		stroke-opacity="0.000"
		fill-rule="nonzero"
		stroke-width="0.24"
		stroke-linejoin="miter"
		stroke-linecap="square"
		d="M12.00,2.53C13.37,2.53,14.48,3.64,14.48,5.00C14.48,6.36,13.37,7.47,12.00,7.47C10.63,7.47,9.52,6.36,9.52,5.00C9.52,3.64,10.63,2.53,12.00,2.53z"/>
	<path
		fill="#FFFFFF"
		stroke="#000000"
		fill-opacity="1.000"
		stroke-opacity="0.000"
		fill-rule="nonzero"
		stroke-width="0.24"
		stroke-linejoin="miter"
		stroke-linecap="square"
		d="M12.00,16.53C13.37,16.53,14.48,17.64,14.48,19.00C14.48,20.36,13.37,21.47,12.00,21.47C10.63,21.47,9.52,20.36,9.52,19.00C9.52,17.64,10.63,16.53,12.00,16.53z"/>
</svg>